<?xml version="1.0" standalone="no"?>
<!DOCTYPE svg PUBLIC "-//W3C//DTD SVG 20010904//EN"
 "http://www.w3.org/TR/2001/REC-SVG-20010904/DTD/svg10.dtd">
<svg version="1.0" xmlns="http://www.w3.org/2000/svg"
 width="500.000000pt" height="500.000000pt" viewBox="0 0 500.000000 500.000000"
 preserveAspectRatio="xMidYMid meet">

<g transform="translate(0.000000,500.000000) scale(0.100000,-0.100000)"
fill="#000000" stroke="none">
<path d="M0 2500 l0 -2500 2500 0 2500 0 0 2500 0 2500 -2500 0 -2500 0 0
-2500z m2546 1171 c26 -52 -34 -104 -76 -66 -25 22 -26 70 -2 84 28 17 65 8
78 -18z m-231 -45 c12 -35 -3 -60 -39 -64 -32 -4 -66 22 -66 49 0 10 12 27 26
38 32 25 65 15 79 -23z m585 -9 c0 -31 0 -31 16 -9 25 37 44 28 44 -20 0 -24
-4 -49 -9 -57 -14 -21 -29 -4 -23 26 l5 28 -20 -24 c-22 -27 -43 -21 -43 12
-1 20 -2 20 -11 5 -9 -17 -39 -26 -39 -12 0 3 12 25 26 49 29 50 54 51 54 2z
m-830 -37 c0 -5 -8 -14 -17 -20 -16 -10 -15 -11 4 -7 30 7 40 -11 17 -29 -18
-15 -18 -15 3 -11 35 8 37 -10 5 -27 l-29 -15 -22 47 c-22 44 -22 47 -5 59 21
15 44 17 44 3z m1085 -92 c-9 -65 -21 -80 -35 -44 -8 23 -15 27 -35 22 -40
-10 -37 9 7 42 61 47 71 43 63 -20z m-1231 -69 c10 9 16 9 21 1 4 -6 5 -12 4
-13 -2 -1 -14 -10 -25 -20 -21 -18 -22 -17 -53 22 -41 51 -31 80 10 31 23 -27
31 -31 43 -21z m1407 -9 c12 -7 19 -21 19 -38 l0 -27 -20 25 c-21 27 -27 21
-10 -10 15 -28 2 -52 -28 -48 -31 4 -55 37 -42 58 8 12 11 11 16 -7 3 -12 12
-24 20 -27 16 -6 19 10 4 19 -11 7 -14 48 -3 58 9 10 21 9 44 -3z m-1588 -66
c-3 -9 6 -27 22 -44 36 -38 14 -52 -25 -15 -17 17 -30 23 -34 16 -4 -6 -11
-11 -17 -11 -17 0 -9 24 18 52 27 28 47 29 36 2z m1757 -126 c0 -13 -28 -9
-33 5 -2 6 -8 9 -12 5 -4 -4 -2 -14 4 -22 8 -9 8 -16 2 -20 -5 -4 -12 -2 -16
4 -12 20 -26 10 -15 -11 10 -18 9 -20 -5 -17 -10 1 -24 12 -31 24 -13 19 -11
23 28 52 l43 31 17 -22 c10 -12 18 -25 18 -29z m-1870 -59 c31 -6 49 -16 47
-22 -2 -7 -8 -12 -13 -12 -20 0 -34 -18 -29 -35 3 -10 2 -21 -3 -24 -12 -7
-75 81 -67 94 8 12 3 12 65 -1z m1960 -79 c0 -5 -8 -14 -17 -19 -16 -9 -14
-10 8 -11 15 0 30 -7 33 -16 5 -13 1 -15 -24 -12 -27 4 -33 0 -47 -25 -14 -27
-16 -29 -25 -13 -7 12 -7 21 1 29 17 17 13 26 -9 20 -34 -9 -22 15 18 36 41
22 62 26 62 11z m-2047 -125 c34 9 38 -19 5 -30 -14 -4 -18 -8 -10 -12 11 -4
18 -33 8 -33 -2 0 -25 9 -50 20 -45 19 -65 47 -26 37 16 -4 18 -2 10 13 -6 10
-10 27 -10 37 1 15 5 13 24 -10 18 -23 28 -27 49 -22z m537 -74 c0 -5 -9 -11
-19 -14 -30 -7 -41 -68 -41 -222 l1 -140 85 90 c192 204 216 233 209 255 -3
11 -15 20 -26 20 -10 0 -19 5 -19 10 0 6 33 10 80 10 77 0 105 -12 58 -24 -19
-4 -219 -206 -241 -242 -4 -7 4 -9 22 -6 34 5 85 -20 105 -51 8 -12 32 -74 53
-137 l38 -115 3 111 c3 120 -7 163 -38 171 -43 11 -16 23 54 23 l73 0 47 -132
c25 -73 75 -216 110 -318 59 -169 65 -183 75 -158 15 41 211 600 211 604 0 2
36 4 80 4 75 0 105 -11 60 -23 -11 -3 -24 -17 -30 -32 -13 -34 -13 -535 0
-570 5 -14 20 -30 32 -35 16 -6 -13 -9 -92 -9 -106 0 -113 1 -88 14 36 20 40
51 36 332 l-3 232 -101 -287 -101 -287 -54 0 -54 0 -91 263 c-51 145 -95 266
-98 269 -3 4 -6 -41 -6 -99 0 -110 10 -138 45 -124 8 3 15 2 15 -1 0 -13 -34
-43 -48 -43 -13 0 -14 -16 -8 -106 7 -115 15 -140 49 -154 15 -6 -2 -9 -58 -9
-58 0 -74 3 -57 9 32 14 42 49 42 158 l0 98 -30 11 c-39 15 -63 57 -106 188
-20 61 -46 121 -59 134 -32 33 -73 21 -130 -36 l-45 -46 0 -76 c0 -95 13 -145
43 -159 17 -8 -3 -11 -93 -11 -76 0 -108 3 -93 9 12 5 26 18 32 29 7 12 11
119 11 293 0 231 -2 277 -16 296 -8 12 -22 22 -30 22 -8 0 -12 5 -9 10 8 12
215 13 215 1z m1595 -21 c37 -41 -14 -107 -64 -81 -47 26 -30 101 24 101 12 0
30 -9 40 -20z m52 -256 c2 -5 -22 -22 -52 -37 -55 -27 -66 -24 -43 13 10 15
10 22 0 32 -6 6 -12 18 -12 24 0 15 102 -16 107 -32z m-9 -216 c2 -10 -8 -18
-30 -23 l-33 -7 28 -10 c16 -6 27 -17 27 -29 0 -16 -7 -19 -56 -19 -39 0 -54
4 -52 12 3 7 15 15 29 18 l24 6 -22 8 c-28 9 -30 36 -3 36 11 0 20 5 20 10 0
6 -7 10 -15 10 -8 0 -15 9 -15 20 0 19 1 19 48 1 26 -10 48 -25 50 -33z m-83
-228 c14 -5 25 -13 25 -17 -1 -26 -14 -53 -27 -53 -10 0 -12 6 -8 20 4 11 2
20 -4 20 -6 0 -11 -4 -11 -10 0 -5 -6 -10 -14 -10 -9 0 -13 8 -9 23 4 21 4 21
-11 3 -20 -25 -30 -15 -22 20 7 27 18 28 81 4z m-94 -176 c47 -30 47 -50 -2
-46 -34 3 -34 3 -11 -13 23 -17 29 -35 12 -35 -20 0 -91 51 -85 60 3 6 21 10
38 10 29 1 30 2 12 12 -28 15 -28 15 -20 27 9 15 10 15 56 -15z m-129 -181
c34 -31 13 -93 -33 -93 -25 0 -24 20 2 27 26 7 22 48 -5 48 -11 0 -21 -6 -24
-13 -2 -7 2 -10 12 -6 22 8 20 -9 -2 -29 -37 -34 -58 27 -22 63 24 24 47 25
72 3z"/>
<path d="M2478 3658 c-8 -21 2 -38 22 -38 19 0 34 25 24 41 -8 13 -41 11 -46
-3z"/>
<path d="M2243 3624 c-8 -23 23 -52 39 -36 9 9 9 12 0 12 -7 0 -12 5 -12 10 0
6 8 10 18 10 14 0 15 2 2 10 -22 14 -40 12 -47 -6z"/>
<path d="M1605 3130 c3 -5 8 -10 11 -10 2 0 4 5 4 10 0 6 -5 10 -11 10 -5 0
-7 -4 -4 -10z"/>
<path d="M3612 2828 c2 -15 10 -23 23 -23 13 0 21 8 23 23 3 18 -1 22 -23 22
-22 0 -26 -4 -23 -22z"/>
<path d="M3660 2600 c0 -5 5 -10 11 -10 5 0 7 5 4 10 -3 6 -8 10 -11 10 -2 0
-4 -4 -4 -10z"/>
</g>
</svg>
