<?xml version="1.0" standalone="no"?>
<!DOCTYPE svg PUBLIC "-//W3C//DTD SVG 20010904//EN"
 "http://www.w3.org/TR/2001/REC-SVG-20010904/DTD/svg10.dtd">
<svg version="1.0" xmlns="http://www.w3.org/2000/svg"
 width="500.000000pt" height="500.000000pt" viewBox="0 0 500.000000 500.000000"
 preserveAspectRatio="xMidYMid meet">

<g transform="translate(0.000000,500.000000) scale(0.100000,-0.100000)"
fill="#000000" stroke="none">
<path d="M2846 3363 c-20 -43 -115 -247 -210 -453 -162 -350 -175 -375 -202
-381 -16 -4 -21 -7 -12 -8 9 0 19 -5 22 -9 4 -6 -66 -168 -78 -180 -9 -9 -65
30 -103 71 -22 24 -73 93 -113 153 -112 168 -146 197 -283 240 -31 10 -64 25
-72 34 -14 15 -13 18 2 32 10 8 63 32 118 53 201 76 298 140 351 231 32 54 44
157 24 204 -12 28 -16 30 -66 30 l-53 0 16 -37 c34 -81 -8 -207 -95 -283 -23
-21 -96 -66 -161 -99 -132 -69 -172 -102 -155 -129 6 -9 32 -31 59 -49 81 -53
113 -92 232 -270 63 -95 124 -180 136 -188 14 -10 45 -15 88 -15 l67 0 -145
-312 c-184 -396 -193 -418 -185 -418 4 0 81 163 172 361 115 252 171 363 183
367 12 3 15 7 7 12 -8 5 1 33 29 93 22 48 42 87 46 87 3 0 13 -16 21 -35 11
-28 14 -111 13 -467 0 -481 -1 -492 -59 -520 -35 -18 -34 -18 115 -17 143 0
148 1 110 15 -59 22 -93 60 -117 134 -21 61 -22 86 -26 450 -2 211 -1 382 1
380 2 -3 98 -206 212 -452 114 -247 211 -448 215 -448 4 0 85 210 180 468 95
257 175 469 177 472 2 2 3 -205 1 -460 -3 -515 -3 -510 -68 -542 -35 -18 -34
-18 115 -18 139 1 148 2 117 15 -66 29 -67 38 -67 520 0 482 1 491 67 520 32
14 29 14 -64 15 l-96 0 -30 -77 c-16 -43 -87 -234 -158 -425 -71 -192 -131
-348 -134 -348 -3 0 -95 190 -205 423 l-201 422 -52 3 c-29 2 -52 6 -52 11 0
4 93 207 206 450 113 244 203 445 201 448 -3 2 -21 -31 -41 -74z"/>
<path d="M1570 3362 c65 -32 65 -29 65 -517 0 -406 -1 -443 -18 -473 -10 -19
-33 -40 -50 -47 -29 -13 -19 -14 118 -15 149 0 150 0 115 18 -66 32 -65 28
-65 522 0 406 2 448 18 477 11 21 29 36 50 42 24 7 -7 9 -118 10 -149 1 -150
1 -115 -17z"/>
</g>
</svg>
